<svg width="24" height="24" viewBox="0 0 24 24" fill="none" xmlns="http://www.w3.org/2000/svg">
<path d="M19.575 12C19.575 16.1421 16.2171 19.5 12.075 19.5C7.93286 19.5 4.575 16.1421 4.575 12C4.575 7.85786 7.93286 4.5 12.075 4.5C16.2171 4.5 19.575 7.85786 19.575 12Z" fill="#FFA800"/>
<path d="M0 12L6.6375 8.16784V15.8322L0 12Z" fill="#FFA800"/>
<path d="M24 12L17.3625 8.16784V15.8322L24 12Z" fill="#FFA800"/>
<path d="M12 0L15.8322 6.6375H8.16784L12 0Z" fill="#FFA800"/>
<path d="M12 24L15.8322 17.3625H8.16784L12 24Z" fill="#FFA800"/>
<path d="M3.51472 20.4853L5.49839 13.0821L10.9179 18.5016L3.51472 20.4853Z" fill="#FFA800"/>
<path d="M20.4853 3.51472L13.0821 5.49839L18.5016 10.9179L20.4853 3.51472Z" fill="#FFA800"/>
<path d="M3.51472 3.51472L10.9179 5.49839L5.49839 10.9179L3.51472 3.51472Z" fill="#FFA800"/>
<path d="M20.4853 20.4853L18.5016 13.0821L13.0821 18.5016L20.4853 20.4853Z" fill="#FFA800"/>
</svg>
